<svg width="256" height="256" viewBox="0 0 256 256" fill="none" xmlns="http://www.w3.org/2000/svg">
  <defs>
    <linearGradient id="shackleBack" x1="128" y1="46" x2="128" y2="112" gradientUnits="userSpaceOnUse">
      <stop stop-color="#6F96B2" />
      <stop offset="1" stop-color="#48647C" />
    </linearGradient>
    <linearGradient id="shackleFront" x1="128" y1="44" x2="128" y2="108" gradientUnits="userSpaceOnUse">
      <stop stop-color="#B9DDF4" />
      <stop offset="0.45" stop-color="#8EBBDA" />
      <stop offset="1" stop-color="#6C93B1" />
    </linearGradient>
    <linearGradient id="bodySide" x1="82" y1="110" x2="188" y2="214" gradientUnits="userSpaceOnUse">
      <stop stop-color="#122435" />
      <stop offset="1" stop-color="#08121D" />
    </linearGradient>
    <linearGradient id="bodyFront" x1="75" y1="102" x2="181" y2="208" gradientUnits="userSpaceOnUse">
      <stop stop-color="#22415E" />
      <stop offset="0.5" stop-color="#173149" />
      <stop offset="1" stop-color="#0F1F30" />
    </linearGradient>
    <linearGradient id="bodyGloss" x1="128" y1="104" x2="128" y2="160" gradientUnits="userSpaceOnUse">
      <stop stop-color="#3A607F" stop-opacity="0.4" />
      <stop offset="1" stop-color="#3A607F" stop-opacity="0" />
    </linearGradient>
    <linearGradient id="bodyStroke" x1="72" y1="104" x2="184" y2="208" gradientUnits="userSpaceOnUse">
      <stop stop-color="#B7E0FB" stop-opacity="0.3" />
      <stop offset="1" stop-color="#89B6D1" stop-opacity="0.08" />
    </linearGradient>
    <linearGradient id="slotBack" x1="128" y1="124" x2="128" y2="184" gradientUnits="userSpaceOnUse">
      <stop stop-color="#163149" />
      <stop offset="1" stop-color="#0A1825" />
    </linearGradient>
    <linearGradient id="slotFront" x1="128" y1="120" x2="128" y2="176" gradientUnits="userSpaceOnUse">
      <stop stop-color="#ADD8FF" />
      <stop offset="0.55" stop-color="#8FD3FF" />
      <stop offset="1" stop-color="#6DB7E2" />
    </linearGradient>
    <filter id="drop" x="46" y="34" width="164" height="202" filterUnits="userSpaceOnUse" color-interpolation-filters="sRGB">
      <feFlood flood-opacity="0" result="BackgroundImageFix" />
      <feColorMatrix in="SourceAlpha" type="matrix" values="0 0 0 0 0 0 0 0 0 0 0 0 0 0 0 0 0 0 127 0" result="hardAlpha" />
      <feOffset dy="10" />
      <feGaussianBlur stdDeviation="11" />
      <feColorMatrix type="matrix" values="0 0 0 0 0.0117647 0 0 0 0 0.0392157 0 0 0 0 0.0666667 0 0 0 0.24 0" />
      <feBlend mode="normal" in2="BackgroundImageFix" result="effect1_dropShadow_1_2" />
      <feBlend mode="normal" in="SourceGraphic" in2="effect1_dropShadow_1_2" result="shape" />
    </filter>
  </defs>

  <g filter="url(#drop)">
    <path
      d="M92 112V88C92 68.1177 108.118 52 128 52C147.882 52 164 68.1177 164 88V112"
      stroke="url(#shackleBack)"
      stroke-width="16"
      stroke-linecap="round"
      stroke-linejoin="round"
      opacity="0.7"
    />
    <path
      d="M87 106V84C87 61.3563 105.356 43 128 43C150.644 43 169 61.3563 169 84V106"
      stroke="url(#shackleFront)"
      stroke-width="14"
      stroke-linecap="round"
      stroke-linejoin="round"
    />

    <rect x="76" y="108" width="116" height="108" rx="30" fill="url(#bodySide)" />
    <rect x="66" y="100" width="116" height="108" rx="30" fill="url(#bodyFront)" />
    <rect x="66" y="100" width="116" height="108" rx="30" fill="url(#bodyGloss)" />
    <rect x="67" y="101" width="114" height="106" rx="29" stroke="url(#bodyStroke)" stroke-width="2" />

    <path
      d="M80 118C92.5 112 106.5 109 122 109H168"
      stroke="#A2CBE3"
      stroke-opacity="0.16"
      stroke-width="4"
      stroke-linecap="round"
    />
    <path
      d="M80 196C107 205 139 205 166 196"
      stroke="#07111B"
      stroke-opacity="0.36"
      stroke-width="5"
      stroke-linecap="round"
    />

    <path
      d="M146 132H123C116.373 132 111 137.373 111 144C111 150.627 116.373 156 123 156H137C143.627 156 149 161.373 149 168C149 174.627 143.627 180 137 180H114"
      stroke="url(#slotBack)"
      stroke-width="14"
      stroke-linecap="round"
      stroke-linejoin="round"
    />
    <path
      d="M143 126H121C114.373 126 109 131.373 109 138C109 144.627 114.373 150 121 150H135C141.627 150 147 155.373 147 162C147 168.627 141.627 174 135 174H112"
      stroke="url(#slotFront)"
      stroke-width="10"
      stroke-linecap="round"
      stroke-linejoin="round"
    />
    <path
      d="M143 126H121C114.373 126 109 131.373 109 138C109 144.627 114.373 150 121 150H135C141.627 150 147 155.373 147 162C147 168.627 141.627 174 135 174H112"
      stroke="#D7EFFF"
      stroke-opacity="0.12"
      stroke-width="2"
      stroke-linecap="round"
      stroke-linejoin="round"
    />
  </g>
</svg>
